<?xml version="1.0" encoding="UTF-8"?>
<svg version="1.1" xmlns="http://www.w3.org/2000/svg" width="170" height="75">
<path d="M0 0 C56.1 0 112.2 0 170 0 C170 24.75 170 49.5 170 75 C113.9 75 57.8 75 0 75 C0 50.25 0 25.5 0 0 Z " fill="#FBFCFD" transform="translate(0,0)"/>
<path d="M0 0 C0.85142578 -0.020625 1.70285156 -0.04125 2.58007812 -0.0625 C7.77121586 -0.09461841 11.29631287 0.39767129 15.8125 3.25 C17.35266873 4.79016873 17.09317687 6.23459055 17.1875 8.375 C17.17036638 13.72925582 15.22014711 16.24601464 11.8125 20.25 C12.29976562 20.67667969 12.78703125 21.10335937 13.2890625 21.54296875 C14.8125 23.25 14.8125 23.25 15.1875 26.5625 C14.7148895 31.2098366 13.31260736 34.34077245 10.4375 38 C5.26298935 41.98039281 -0.28347976 41.48922581 -6.5 41.375 C-7.43134766 41.36597656 -8.36269531 41.35695312 -9.32226562 41.34765625 C-11.6109436 41.32418263 -13.89908672 41.29134729 -16.1875 41.25 C-15.17791295 31.35339012 -13.8180931 21.55417248 -12.125 11.75 C-11.9506543 10.72898193 -11.77630859 9.70796387 -11.59667969 8.65600586 C-11.42942383 7.70733643 -11.26216797 6.75866699 -11.08984375 5.78125 C-10.86542603 4.50604492 -10.86542603 4.50604492 -10.63647461 3.20507812 C-9.54308782 -1.55611896 -4.0268322 0.02384505 0 0 Z " fill="#0D3873" transform="translate(65.1875,17.75)"/>
<path d="M0 0 C2.64 0 5.28 0 8 0 C12.04837658 8.64509235 16.0742756 17.29827911 20 26 C21.60158455 20.76538382 22.67760773 15.58581105 23.5625 10.1875 C24.86885246 2.26229508 24.86885246 2.26229508 26 0 C28.31 0 30.62 0 33 0 C32.16486679 5.03557503 31.32865446 10.07096924 30.49145508 15.10620117 C30.20698075 16.8180663 29.92279794 18.5299799 29.63891602 20.24194336 C29.2301022 22.70699758 28.82022979 25.17187382 28.41015625 27.63671875 C28.22103416 28.77919319 28.22103416 28.77919319 28.02809143 29.94474792 C27.4117095 33.64342733 26.76467765 37.32891269 26 41 C23.69 41 21.38 41 19 41 C14.48790764 32.0765816 10.03363583 23.15325054 6 14 C5.3509032 17.18684428 4.70632052 20.37458595 4.0625 23.5625 C3.88009766 24.45775391 3.69769531 25.35300781 3.50976562 26.27539062 C2.52319496 31.17236866 1.64555127 36.04624344 1 41 C-1.31 41 -3.62 41 -6 41 C-6.14216081 35.81409198 -5.63439163 30.98396145 -4.6875 25.87890625 C-4.4877356 24.76176491 -4.4877356 24.76176491 -4.28393555 23.62205505 C-3.86162284 21.26780707 -3.43095891 18.91517892 -3 16.5625 C-2.71038192 14.9564803 -2.421314 13.35036128 -2.1328125 11.74414062 C-1.42822931 7.82825033 -0.71615773 3.91378931 0 0 Z " fill="#0A3671" transform="translate(124,18)"/>
<path d="M0 0 C1.0725 0.12375 2.145 0.2475 3.25 0.375 C4.25593718 5.08708188 5.2525155 9.80101359 6.24072266 14.5168457 C6.57771636 16.11861589 6.91719735 17.71986499 7.25927734 19.32055664 C7.75243034 21.63032427 8.23640989 23.94185952 8.71875 26.25390625 C8.87186646 26.96148575 9.02498291 27.66906525 9.18273926 28.39808655 C10.0983844 32.8420514 10.39408149 36.86988049 10.25 41.375 C7.94 41.375 5.63 41.375 3.25 41.375 C2.755 36.425 2.755 36.425 2.25 31.375 C-3.22310214 31.21421557 -8.37614893 31.24309556 -13.75 32.375 C-16.54217433 35.03182656 -17.73671995 37.68695865 -18.75 41.375 C-21.06 41.375 -23.37 41.375 -25.75 41.375 C-24.36994954 36.79735617 -22.51002021 32.83530573 -20.1953125 28.65625 C-19.85249237 28.03528442 -19.50967224 27.41431885 -19.15646362 26.77453613 C-18.43433416 25.46897233 -17.70977563 24.16474941 -16.98291016 22.86181641 C-15.87986763 20.88372913 -14.78504647 18.90126685 -13.69140625 16.91796875 C-11.73561441 13.38863861 -9.78039394 9.86226582 -7.75 6.375 C-7.15558105 5.24642578 -6.56116211 4.11785156 -5.94873047 2.95507812 C-3.75 0.375 -3.75 0.375 0 0 Z " fill="#0B3772" transform="translate(104.75,17.625)"/>
<path d="M0 0 C2.31 0 4.62 0 7 0 C6.59731701 5.76472494 6.07438758 11.27221833 4.53515625 16.84765625 C3.62593918 20.50443439 3.10388881 24.22693173 2.5078125 27.9453125 C1.7806604 32.31941208 0.90272787 36.65922343 0 41 C-2.31 41 -4.62 41 -7 41 C-7 40.34 -7 39.68 -7 39 C-8.24394531 39.04640625 -9.48789062 39.0928125 -10.76953125 39.140625 C-30.07616493 39.64695854 -30.07616493 39.64695854 -37 35 C-39.4020405 31.7612937 -40.38901666 29.18717672 -40.6875 25.1875 C-40.75324219 24.39730469 -40.81898437 23.60710938 -40.88671875 22.79296875 C-40.94279297 21.90544922 -40.94279297 21.90544922 -41 21 C-36.33160622 22.23316062 -36.33160622 22.23316062 -34 24 C-32.48993084 27.23363085 -31.68813548 30.50689323 -31 34 C-22.72049367 36.21772491 -14.52080037 36.60271115 -6 37 C-5.67 33.04 -5.34 29.08 -5 25 C-5.99 25.495 -5.99 25.495 -7 26 C-9.55157655 26.0716735 -12.07472971 26.09308442 -14.625 26.0625 C-15.33140625 26.05798828 -16.0378125 26.05347656 -16.765625 26.04882812 C-18.51045275 26.03703875 -20.255237 26.01910324 -22 26 C-22.33 25.01 -22.66 24.02 -23 23 C-16.73 23 -10.46 23 -4 23 C-3.71125 20.69 -3.4225 18.38 -3.125 16 C-2.42094954 10.550673 -1.51049631 5.2867371 0 0 Z " fill="#0C3873" transform="translate(43,18)"/>
<path d="M0 0 C1.10794922 -0.0309375 1.10794922 -0.0309375 2.23828125 -0.0625 C7.48724722 -0.09952974 11.05758936 0.8913809 15.75 3.25 C15.09 3.58 14.43 3.91 13.75 4.25 C12.76 3.92 11.77 3.59 10.75 3.25 C0.20299001 2.35510218 -7.98414017 3.01286343 -16.34375 10 C-19.36118781 12.86903923 -21.51653727 15.44138237 -23.25 19.25 C-20.94 19.58 -18.63 19.91 -16.25 20.25 C-16.12625 19.445625 -16.12625 19.445625 -16 18.625 C-14.25524109 13.09993013 -10.38175994 9.15221772 -6.25 5.25 C-5.59 5.58 -4.93 5.91 -4.25 6.25 C-4.63671875 6.72308594 -5.0234375 7.19617188 -5.421875 7.68359375 C-10.81522602 14.53208156 -15.40173418 22.2138606 -15.34765625 31.13671875 C-15.34282227 32.5434082 -15.34282227 32.5434082 -15.33789062 33.97851562 C-15.32951172 34.95498047 -15.32113281 35.93144531 -15.3125 36.9375 C-15.30798828 37.92556641 -15.30347656 38.91363281 -15.29882812 39.93164062 C-15.28704303 42.37115474 -15.27059011 44.81054689 -15.25 47.25 C-18.20605469 43.57666016 -18.20605469 43.57666016 -18.6015625 40.63671875 C-18.81554688 39.84910156 -19.02953125 39.06148437 -19.25 38.25 C-21.66950257 36.84192183 -21.66950257 36.84192183 -24.625 36.0625 C-27.97901133 35.02266799 -30.3016519 34.2155654 -33.25 32.25 C-33.64259107 28.01001646 -33.57490278 24.88266059 -31.25 21.25 C-28.775 22.24 -28.775 22.24 -26.25 23.25 C-26.58 26.55 -26.91 29.85 -27.25 33.25 C-24.61 33.58 -21.97 33.91 -19.25 34.25 C-19.26160156 33.62351563 -19.27320313 32.99703125 -19.28515625 32.3515625 C-19.29417969 31.53429687 -19.30320312 30.71703125 -19.3125 29.875 C-19.32410156 29.06289063 -19.33570313 28.25078125 -19.34765625 27.4140625 C-19.25 25.25 -19.25 25.25 -18.25 23.25 C-19.301875 23.12625 -20.35375 23.0025 -21.4375 22.875 C-24.70958771 22.33859218 -27.25536076 21.61119965 -30.25 20.25 C-28.2239329 12.84952334 -23.43320682 7.88974775 -16.984375 3.8203125 C-11.19645349 0.88347825 -6.39528626 0.04372845 0 0 Z " fill="#189EFC" transform="translate(35.25,4.75)"/>
<path d="M0 0 C6.6 0.33 13.2 0.66 20 1 C19.125 12.625 19.125 12.625 18 16 C11.73 16 5.46 16 -1 16 C-0.67 16.99 -0.34 17.98 0 19 C-0.66 19.99 -1.32 20.98 -2 22 C-2.05434116 19.4580411 -2.0938339 16.91726318 -2.125 14.375 C-2.14175781 13.66214844 -2.15851562 12.94929688 -2.17578125 12.21484375 C-2.18544922 11.16103516 -2.18544922 11.16103516 -2.1953125 10.0859375 C-2.20578613 9.4470459 -2.21625977 8.8081543 -2.22705078 8.14990234 C-2 6 -2 6 0 0 Z " fill="#EEF9FE" transform="translate(21,25)"/>
<path d="M0 0 C1.08152344 -0.01417969 2.16304687 -0.02835938 3.27734375 -0.04296875 C6.0625 0.1875 6.0625 0.1875 8.0625 2.1875 C7.73456155 8.19970483 7.73456155 8.19970483 5.8984375 10.8984375 C3.21772496 12.78063992 1.10601533 12.4792263 -2.125 12.375 C-3.21167969 12.34792969 -4.29835937 12.32085937 -5.41796875 12.29296875 C-6.66513672 12.24076172 -6.66513672 12.24076172 -7.9375 12.1875 C-7.79712479 10.37456911 -7.65005111 8.5621557 -7.5 6.75 C-7.41878906 5.74066406 -7.33757813 4.73132812 -7.25390625 3.69140625 C-6.66302676 -0.98456602 -4.22573606 0.02512328 0 0 Z " fill="#F7F8FA" transform="translate(64.9375,40.8125)"/>
<path d="M0 0 C1.093125 0.00257812 2.18625 0.00515625 3.3125 0.0078125 C4.405625 0.00523438 5.49875 0.00265625 6.625 0 C9.3125 0.1328125 9.3125 0.1328125 10.3125 1.1328125 C10.68722161 4.505307 10.65523364 6.51262782 9 9.5078125 C4.70156162 12.10686826 0.21117185 11.43686799 -4.6875 11.1328125 C-4.54707123 9.48650922 -4.40000671 7.84077071 -4.25 6.1953125 C-4.16878906 5.27878906 -4.08757813 4.36226562 -4.00390625 3.41796875 C-3.54797501 0.12513205 -3.37354256 0.16671577 0 0 Z " fill="#F5F6F8" transform="translate(64.6875,23.8671875)"/>
<path d="M0 0 C6.26536998 1.52283298 10.341758 3.67964811 14.8828125 8.28125 C20.28133591 12.66381513 25.72328634 13.47249773 32.4375 13.6875 C33.16904297 13.72166016 33.90058594 13.75582031 34.65429688 13.79101562 C36.43569562 13.87251753 38.21781749 13.93795523 40 14 C34.3472181 17.76852127 25.6442076 16.7580539 19 16 C15.18737076 14.87343556 12.21303813 13.31947132 9 11 C8.39800781 10.56945312 7.79601562 10.13890625 7.17578125 9.6953125 C4.32583944 7.47332397 1.90788425 5.07381351 0 2 C0 1.34 0 0.68 0 0 Z " fill="#189DFC" transform="translate(7,55)"/>
<path d="M0 0 C4.66839378 1.23316062 4.66839378 1.23316062 7 3 C8.51006916 6.23363085 9.31186452 9.50689323 10 13 C17.95956551 15.0946225 25.80966773 15.58994384 34 16 C34 16.66 34 17.32 34 18 C11.22577742 18.8496083 11.22577742 18.8496083 4 14 C1.5979595 10.7612937 0.61098334 8.18717672 0.3125 4.1875 C0.24675781 3.39730469 0.18101563 2.60710938 0.11328125 1.79296875 C0.07589844 1.20128906 0.03851563 0.60960937 0 0 Z " fill="#0D97FC" transform="translate(2,39)"/>
<path d="M0 0 C0.33 1.32 0.66 2.64 1 4 C0.236875 4.45375 -0.52625 4.9075 -1.3125 5.375 C-3.23632814 6.53824492 -5.12941224 7.7529415 -7 9 C-6.34 7.68 -5.68 6.36 -5 5 C-10.1154241 8.36156441 -12.3265957 12.67594378 -15 18 C-17.31 17.67 -19.62 17.34 -22 17 C-20.30929668 10.80075448 -15.78044612 6.68090607 -10.421875 3.44140625 C-3.75354108 0 -3.75354108 0 0 0 Z " fill="#EEFAFE" transform="translate(34,7)"/>
<path d="M0 0 C0.66 1.32 1.32 2.64 2 4 C3.98685102 5.26667562 3.98685102 5.26667562 6.3125 6.125 C7.51519531 6.62966797 7.51519531 6.62966797 8.7421875 7.14453125 C11.08716795 8.07270266 11.08716795 8.07270266 13.9375 8.8125 C16 10 16 10 17.1875 13.5625 C17.455625 14.696875 17.72375 15.83125 18 17 C18.66 17.33 19.32 17.66 20 18 C20 18.99 20 19.98 20 21 C16.89982745 20.98700137 13.99896456 20.82032068 11 20 C8.83578239 17.02420078 8.11876544 14.87094659 7.625 11.25 C7.41875 10.5075 7.2125 9.765 7 9 C4.52363988 7.62533375 4.52363988 7.62533375 2 7 C1.34 7.99 0.68 8.98 0 10 C0 6.7 0 3.4 0 0 Z " fill="#E7F8FE" transform="translate(1,33)"/>
<path d="M0 0 C2.95664482 5.72098754 3.10755105 10.65448788 3 17 C-0.63 17 -4.26 17 -8 17 C-6.3341708 10.83643195 -3.12194714 5.51740344 0 0 Z " fill="#E8EBF1" transform="translate(102,27)"/>
<path d="M0 0 C0.33 0.66 0.66 1.32 1 2 C3.80478195 2.91485573 3.80478195 2.91485573 7.0625 3.625 C8.16722656 3.88539062 9.27195312 4.14578125 10.41015625 4.4140625 C11.26480469 4.60742188 12.11945312 4.80078125 13 5 C12.67 8.63 12.34 12.26 12 16 C9.36 15.67 6.72 15.34 4 15 C4 11.7 4 8.4 4 5 C2.68 4.34 1.36 3.68 0 3 C0 2.01 0 1.02 0 0 Z " fill="#EEF9FE" transform="translate(4,23)"/>
<path d="M0 0 C2.475 0.99 2.475 0.99 5 2 C4.125 9.75 4.125 9.75 3 12 C1.35 11.67 -0.3 11.34 -2 11 C-2.28571429 3.57142857 -2.28571429 3.57142857 0 0 Z " fill="#0B96FC" transform="translate(4,26)"/>
<path d="M0 0 C7.92 0.66 15.84 1.32 24 2 C24 2.66 24 3.32 24 4 C20.93726169 4.05410136 17.87548548 4.09372225 14.8125 4.125 C13.51602539 4.15013672 13.51602539 4.15013672 12.19335938 4.17578125 C7.67791897 4.21038233 4.09918517 4.15567916 0 2 C0 1.34 0 0.68 0 0 Z " fill="#1A9DFC" transform="translate(12,53)"/>
<path d="M0 0 C6.27 0 12.54 0 19 0 C19 0.66 19 1.32 19 2 C15.38132441 3.2062252 12.07493749 3.10816918 8.3125 3.0625 C7.61060547 3.05798828 6.90871094 3.05347656 6.18554688 3.04882812 C4.45699462 3.03706927 2.72848635 3.01913454 1 3 C0.67 2.01 0.34 1.02 0 0 Z " fill="#20A1FB" transform="translate(20,41)"/>
<path d="M0 0 C5.61 0.33 11.22 0.66 17 1 C13.31912647 3.45391569 10.55644412 3.22802759 6.3125 3.125 C5.2596582 3.11146484 5.2596582 3.11146484 4.18554688 3.09765625 C2.45688475 3.07413704 0.72839855 3.03826713 -1 3 C-0.67 2.01 -0.34 1.02 0 0 Z " fill="#0B97FC" transform="translate(23,26)"/>
<path d="M0 0 C0.33 1.32 0.66 2.64 1 4 C-0.1446875 4.680625 -0.1446875 4.680625 -1.3125 5.375 C-3.23632814 6.53824492 -5.12941224 7.7529415 -7 9 C-6 7 -5 5 -4 3 C-4.66 2.34 -5.32 1.68 -6 1 C-3 0 -3 0 0 0 Z " fill="#CBEFFE" transform="translate(34,7)"/>
<path d="M0 0 C0.33 0 0.66 0 1 0 C0.88570603 1.77155654 0.75816963 3.54226229 0.625 5.3125 C0.52058594 6.79169922 0.52058594 6.79169922 0.4140625 8.30078125 C0 11 0 11 -2 14 C-2.05437607 12.41705218 -2.09296271 10.83355744 -2.125 9.25 C-2.14820312 8.36828125 -2.17140625 7.4865625 -2.1953125 6.578125 C-1.99139502 3.8864142 -1.36551721 2.30095026 0 0 Z " fill="#018EFC" transform="translate(19,26)"/>
<path d="M0 0 C0.66 0.33 1.32 0.66 2 1 C1.04367001 2.29315061 0.08486149 3.58446853 -0.875 4.875 C-1.40867187 5.59429688 -1.94234375 6.31359375 -2.4921875 7.0546875 C-4 9 -4 9 -6 11 C-6.71484375 9.234375 -6.71484375 9.234375 -7 7 C-5.56640625 5.078125 -5.56640625 5.078125 -3.5625 3.25 C-2.90378906 2.63640625 -2.24507812 2.0228125 -1.56640625 1.390625 C-1.04949219 0.93171875 -0.53257813 0.4728125 0 0 Z " fill="#29A8FC" transform="translate(29,10)"/>
<path d="M0 0 C0.66 0 1.32 0 2 0 C2 2.31 2 4.62 2 7 C-0.31 7 -2.62 7 -5 7 C-4.67 6.34 -4.34 5.68 -4 5 C-2.68 5 -1.36 5 0 5 C0 3.35 0 1.7 0 0 Z " fill="#21477D" transform="translate(113,52)"/>
</svg>
