<?xml version="1.0" encoding="UTF-8"?>
<svg version="1.1" xmlns="http://www.w3.org/2000/svg" width="512" height="512">
<path d="M0 0 C2.87029869 1.79393668 4.49131638 2.98263276 6 6 C6 12.27 6 18.54 6 25 C28.77 25 51.54 25 75 25 C75 19.06 75 13.12 75 7 C79 1 79 1 81 0 C85.63213493 -0.55512815 88.98172127 -0.6364242 93 1.875 C95.79969832 4.84967947 96.12414217 6.37867393 96.09765625 10.3515625 C96.09443359 11.20234375 96.09121094 12.053125 96.08789062 12.9296875 C96.07951172 13.81914062 96.07113281 14.70859375 96.0625 15.625 C96.05798828 16.5221875 96.05347656 17.419375 96.04882812 18.34375 C96.03702591 20.56256648 96.02056155 22.78125018 96 25 C96.72805344 24.98889694 97.45610687 24.97779388 98.20622253 24.96635437 C105.07696127 24.86605137 111.94759018 24.78998393 118.81887341 24.74093914 C122.35132845 24.71487612 125.88317713 24.67954134 129.4152832 24.62280273 C133.47873661 24.55793936 137.54155598 24.53379268 141.60546875 24.51171875 C142.8702153 24.48591232 144.13496185 24.4601059 145.43803406 24.43351746 C155.20610687 24.43039346 155.20610687 24.43039346 158.2746582 27.40551758 C161.01709306 31.52945351 161.1239197 33.71704495 161.12025452 38.69436646 C161.12153615 39.73823558 161.12153615 39.73823558 161.12284368 40.80319297 C161.12449713 43.14632762 161.11897932 45.48939143 161.11352539 47.83251953 C161.11324346 49.50767007 161.11340136 51.18282073 161.1139679 52.85797119 C161.11425566 57.4155694 161.10836238 61.97314147 161.10139394 66.53073359 C161.09515684 71.2900088 161.09455632 76.04928456 161.09336853 80.80856323 C161.09025627 89.8254077 161.08204429 98.8422401 161.07201904 107.85907924 C161.06085465 118.12253209 161.05534663 128.38598551 161.05032361 138.64944291 C161.03986159 159.76630202 161.02226417 180.88315025 161 202 C162.09894089 201.99696365 163.19788177 201.99392731 164.3301239 201.99079895 C165.78608183 201.98834321 167.24203989 201.98596167 168.69799805 201.98364258 C169.42063591 201.98144966 170.14327377 201.97925674 170.88780975 201.97699738 C175.90225514 201.97100939 180.83313621 202.10299816 185.8125 202.6875 C186.54694336 202.77290039 187.28138672 202.85830078 188.03808594 202.94628906 C209.32742042 205.70985172 228.50495127 212.48170642 243.2734375 228.49609375 C247.8520902 235.13617606 248.42757555 241.36971218 248.29296875 249.1875 C248.28872391 250.13061035 248.28447906 251.0737207 248.28010559 252.04541016 C248.2634357 255.03057518 248.22580575 258.01504218 248.1875 261 C248.17243804 263.03514644 248.15875229 265.07030355 248.14648438 267.10546875 C248.11357055 272.0705777 248.06186999 277.03517087 248 282 C248.99 281.67 249.98 281.34 251 281 C278.06571681 278.94153341 311.85781934 282.58813588 333.25 300.875 C339.79722403 306.85924617 343.21034383 313.9126956 343.63491821 322.75390625 C343.66444113 325.36002086 343.66771155 327.95717195 343.64697266 330.5625 C343.65376143 332.00587054 343.66267159 333.44923241 343.67352295 334.89257812 C343.69617387 338.78531437 343.68753961 342.67738258 343.67162752 346.57012939 C343.65889419 350.66005136 343.67072914 354.74991933 343.67855835 358.83984375 C343.68763342 365.70583272 343.67572357 372.57155205 343.65185547 379.4375 C343.62464812 387.35503247 343.63346382 395.27192099 343.6609875 403.18943787 C343.68373896 410.00932799 343.68684929 416.8290252 343.67379415 423.64894104 C343.66603265 427.71251975 343.66486629 431.77579662 343.68147659 435.83935547 C343.69601059 439.66135528 343.68573919 443.48253172 343.65700531 447.30444336 C343.65044172 448.69993732 343.65221047 450.09550161 343.66331863 451.4909668 C343.73935186 462.02020155 342.02358472 469.7479036 334.875 477.6875 C312.20997299 498.36266383 278.03708002 500.19488869 249 499 C230.36847318 497.63291325 213.35592318 492.99446172 197 484 C196.71382813 484.61101562 196.42765625 485.22203125 196.1328125 485.8515625 C190.30579227 496.90280776 175.69995033 503.0077261 164.5 506.625 C139.88285605 514.02046243 109.0103881 515.91344061 84 509 C82.8855249 508.69400879 82.8855249 508.69400879 81.74853516 508.38183594 C66.60028442 504.06453735 51.51246736 498.09244602 42.04296875 484.90625 C38.83389387 479.04097456 38.69827795 473.53362406 38.69360352 467.02246094 C38.68111824 465.53831444 38.68111824 465.53831444 38.66838074 464.02418518 C38.64433248 460.76087479 38.63551447 457.49776454 38.62890625 454.234375 C38.61993538 451.95762067 38.61081345 449.68086692 38.60154724 447.40411377 C38.5850683 442.63283864 38.57735922 437.86163358 38.57446289 433.09033203 C38.56908306 426.99295036 38.53141389 420.89623239 38.48571873 414.79903793 C38.45589438 410.09596383 38.44873814 405.39304843 38.44773674 400.689888 C38.44354448 398.44292413 38.43115042 396.19595934 38.41021919 393.94908905 C38.38319679 390.79727666 38.38816343 387.64698839 38.40063477 384.49511719 C38.37838333 383.11849663 38.37838333 383.11849663 38.35568237 381.71406555 C38.44900209 373.38214028 41.48392062 366.65342651 46.9375 360.375 C57.01295554 351.12826158 71.6088558 344.91590166 85 343 C85 341.68 85 340.36 85 339 C83.72648335 339.00368717 82.45296671 339.00737434 81.14085865 339.01117325 C50.91863391 339.09778125 20.69644263 339.1637503 -9.52587638 339.20426132 C-13.24470882 339.20926422 -16.963541 339.2144415 -20.68237305 339.21972656 C-21.42273396 339.2207758 -22.16309487 339.22182505 -22.92589096 339.22290608 C-34.9179604 339.24031726 -46.90995323 339.27185884 -58.9019772 339.30861118 C-71.20444157 339.34600084 -83.50686579 339.36823166 -95.80938464 339.37635398 C-103.40237981 339.38184588 -110.99515847 339.39919915 -118.588087 339.43166587 C-124.40771324 339.45528439 -130.227228 339.45782483 -136.04690361 339.45243073 C-138.43623947 339.45353359 -140.82558332 339.46152214 -143.21487045 339.4768219 C-146.47144764 339.49665711 -149.72709057 339.49196216 -152.98368835 339.48101807 C-153.93407932 339.49266943 -154.88447029 339.5043208 -155.86366099 339.51632524 C-160.11110493 339.47761384 -162.38607451 339.38177238 -166.06351948 337.09493637 C-168.97253032 333.94789071 -169.12636777 332.22463296 -169.13701439 328.03580761 C-169.14208893 326.97944015 -169.14716347 325.92307269 -169.15239179 324.83469409 C-169.15288955 323.66497304 -169.15338731 322.49525198 -169.15390015 321.29008484 C-169.1582824 320.05458745 -169.16266465 318.81909007 -169.1671797 317.54615337 C-169.1782623 314.10563685 -169.1847977 310.66516592 -169.18936086 307.2246381 C-169.19531021 303.51833048 -169.20692164 299.81203969 -169.21765137 296.10574341 C-169.24218951 287.14986491 -169.25680397 278.19398082 -169.26971143 269.23807904 C-169.27342214 266.7096847 -169.27739546 264.18129091 -169.2814641 261.65289712 C-169.30669782 245.96057541 -169.32875653 230.26825286 -169.34119225 214.57591534 C-169.34412206 210.94001449 -169.34708371 207.30411367 -169.35009766 203.66821289 C-169.35121673 202.31264231 -169.35121673 202.31264231 -169.35235842 200.92968646 C-169.36501771 186.28321644 -169.39824774 171.63686766 -169.43989949 156.99045434 C-169.4822874 141.96233113 -169.50588358 126.93427006 -169.51111281 111.90608722 C-169.51453036 103.46460352 -169.5263259 95.02330934 -169.55921555 86.58188438 C-169.58717403 79.39420811 -169.59823395 72.20676019 -169.58702008 65.01903375 C-169.58182267 61.35046021 -169.58478937 57.68236517 -169.60948563 54.0138607 C-169.63601919 50.03933307 -169.62395452 46.06546274 -169.60800171 42.09086609 C-169.6218838 40.9278372 -169.63576588 39.76480832 -169.65006864 38.56653613 C-169.5727234 30.78082463 -169.5727234 30.78082463 -166.63957119 26.78190041 C-163.48740082 24.65395869 -161.79796363 24.39188476 -158.01635742 24.43237305 C-156.24508736 24.43293953 -156.24508736 24.43293953 -154.43803406 24.43351746 C-152.54091423 24.4722271 -152.54091423 24.4722271 -150.60546875 24.51171875 C-148.65173088 24.52233086 -148.65173088 24.52233086 -146.65852356 24.53315735 C-143.20736116 24.55218487 -139.75726261 24.60124561 -136.30651855 24.65667725 C-132.78066396 24.70796351 -129.25463627 24.73069117 -125.72851562 24.75585938 C-118.81857531 24.80937102 -111.90933883 24.89463028 -105 25 C-105.03480469 23.90300781 -105.06960937 22.80601563 -105.10546875 21.67578125 C-105.13361865 20.22136955 -105.16091752 18.7669412 -105.1875 17.3125 C-105.21263672 16.59126953 -105.23777344 15.87003906 -105.26367188 15.12695312 C-105.34188075 9.41770491 -104.17322952 6.25084486 -100.25 2.1875 C-96.95322558 0.44753572 -94.67943611 0.55593012 -91 1 C-85.31578947 4.05263158 -85.31578947 4.05263158 -84 8 C-84 13.61 -84 19.22 -84 25 C-61.23 25 -38.46 25 -15 25 C-15 19.06 -15 13.12 -15 7 C-10.23395248 -0.14907128 -8.15373683 -1.05618353 0 0 Z M-148 45 C-148 59.19 -148 73.38 -148 88 C-52.96 88 42.08 88 140 88 C140 73.81 140 59.62 140 45 C125.48 45 110.96 45 96 45 C95.67 50.61 95.34 56.22 95 62 C93 66 93 66 91.3125 67.25 C88.01294404 68.32012626 85.44962955 68.3631189 82 68 C78.61060444 65.86320715 77.27417443 64.8225233 76 61 C75.67 55.72 75.34 50.44 75 45 C52.23 45 29.46 45 6 45 C5.67 50.61 5.34 56.22 5 62 C3 66 3 66 1.3125 67.25 C-1.98705596 68.32012626 -4.55037045 68.3631189 -8 68 C-11.38939556 65.86320715 -12.72582557 64.8225233 -14 61 C-14.33 55.72 -14.66 50.44 -15 45 C-37.77 45 -60.54 45 -84 45 C-84.33 51.27 -84.66 57.54 -85 64 C-90 69 -90 69 -92.31640625 69.62890625 C-98.4013277 69.44900422 -98.4013277 69.44900422 -101.5 67.125 C-106.73347357 59.71091245 -104.26002349 58.31957716 -105 45 C-119.19 45 -133.38 45 -148 45 Z M-148 109 C-148 177.97 -148 246.94 -148 318 C-71.11 318 5.78 318 85 318 C85.495 278.895 85.495 278.895 86 239 C91.31236578 225.71908555 97.99562881 219.40323646 110.5546875 213.26171875 C120.20957102 209.24404141 129.83194311 206.82446025 140 204 C140 172.65 140 141.3 140 109 C44.96 109 -50.08 109 -148 109 Z M109 238.5 C106.2575576 241.85195206 106.2575576 241.85195206 106 246 C111.59361967 255.43923319 123.27026679 259.16667559 133.42236328 261.85864258 C159.72154163 268.39480735 193.60398708 268.35859254 217.6171875 254.48828125 C223.08313694 251.03738911 223.08313694 251.03738911 227 246 C226.88034674 243.01787264 226.39349646 241.49660516 224.5390625 239.15625 C197.58194952 215.83009509 136.65145278 215.45712269 109 238.5 Z M106 274 C105.8916333 276.7302389 105.81253306 279.45614543 105.75 282.1875 C105.71648437 282.95642578 105.68296875 283.72535156 105.6484375 284.51757812 C105.58203021 288.3858028 105.68652251 290.47658542 107.71484375 293.86328125 C124.72191591 309.76562052 153.75982425 310.84557114 175.58618164 310.11499023 C181.77409778 310.08152269 181.77409778 310.08152269 186.94140625 307.21484375 C187.47636719 306.46332031 188.01132812 305.71179688 188.5625 304.9375 C196.71300593 295.05952653 209.14076468 290.78673603 221 287 C223.00045835 286.33470995 225.00060304 285.66847308 227 285 C227 281.37 227 277.74 227 274 C225.2675 274.5878125 225.2675 274.5878125 223.5 275.1875 C222.67371094 275.45949219 221.84742188 275.73148437 220.99609375 276.01171875 C218.81726038 276.73042128 216.64338951 277.46422219 214.47265625 278.20703125 C182.33408089 288.99796577 146.90782304 287.91862383 115 277 C113.16683628 276.39531888 111.33353614 275.7910509 109.5 275.1875 C108.345 274.795625 107.19 274.40375 106 274 Z M203.73046875 317.80859375 C201.76079072 319.93756943 201.76079072 319.93756943 201.515625 322.99609375 C202.2667305 327.65415929 204.72457516 329.22525577 208.26171875 332.11328125 C229.23954359 346.56733174 262.43310426 347.05747405 286.73071289 342.8215332 C299.81086637 340.11139507 312.83104612 336.27137942 322 326 C322.91955603 323.17508802 322.91955603 323.17508802 322 320 C312.94054119 307.92072159 293.91314168 304.73025153 279.81811523 302.68310547 C254.65644852 299.58466474 224.27491323 301.43668705 203.73046875 317.80859375 Z M106 318 C106 325.26 106 332.52 106 340 C107.60746094 339.97679687 109.21492188 339.95359375 110.87109375 339.9296875 C133.70132975 339.69643741 155.37592568 341.10433292 176.33984375 350.828125 C178.8205721 352.13438129 178.8205721 352.13438129 181 352 C181 344.74 181 337.48 181 330 C179.29457031 330.03480469 177.58914063 330.06960938 175.83203125 330.10546875 C151.12962517 330.46033173 128.84291114 327.78981906 106 318 Z M317.5625 354.1875 C312.53476289 356.48589411 307.4948617 358.1899707 302.1875 359.6875 C301.49019775 359.88947998 300.79289551 360.09145996 300.07446289 360.29956055 C287.6297382 363.68794081 275.12612597 364.37940161 262.3125 364.3125 C261.56709961 364.31034485 260.82169922 364.3081897 260.05371094 364.30596924 C242.18546359 364.22322816 226.66533829 361.81399359 209.87646484 355.67919922 C207.26780487 354.73497699 204.63586298 353.86482789 202 353 C200.81051153 363.58867035 200.81051153 363.58867035 203.39453125 373.578125 C205.49142629 375.47429892 207.4786648 376.72327294 210 378 C210.80953125 378.45117188 211.6190625 378.90234375 212.453125 379.3671875 C238.48312394 392.53805523 273.72666226 392.55053471 301.125 383.6875 C308.93099664 380.86748816 316.47510403 377.3674727 322 371 C323.55821327 367.31250053 323.11094379 363.19257918 323.0625 359.25 C323.05798828 358.55261719 323.05347656 357.85523438 323.04882812 357.13671875 C323.0371002 355.42444197 323.01916653 353.71220967 323 352 C321.08766426 352 319.23349869 353.36090247 317.5625 354.1875 Z M63.51513672 374.47338867 C61.52108376 376.78443585 60.10530123 378.56826496 59.375 381.5625 C60.67911614 386.64855296 65.0874682 389.22261103 69.25 392 C84.19799456 400.65645058 102.60972671 402.42228646 119.5 402.375 C120.19976959 402.37478851 120.89953918 402.37457703 121.62051392 402.37435913 C140.91498285 402.31636826 162.60976002 399.8897662 178 387 C180.399545 383.40068251 180.81480111 382.23696577 180 378 C170.70538165 365.56984775 151.62801807 363.0289357 137.3359375 360.53515625 C115.59608141 357.73125255 80.07862452 358.03789889 63.51513672 374.47338867 Z M202 397 C201.86460719 399.89740622 201.76573171 402.78845621 201.6875 405.6875 C201.64560547 406.50412109 201.60371094 407.32074219 201.56054688 408.16210938 C201.47192406 412.54007653 201.51094101 414.37914376 204.3046875 417.92578125 C205.19414062 418.61027344 206.08359375 419.29476563 207 420 C207.86431641 420.69609375 207.86431641 420.69609375 208.74609375 421.40625 C232.22591361 436.58950534 266.18095711 436.36612369 292.59204102 430.78222656 C303.59810799 428.15855256 315.52771719 423.66774956 322.3046875 414.171875 C323.35442531 410.89291871 323.20859722 407.65176366 323.125 404.25 C323.11597656 403.55261719 323.10695313 402.85523438 323.09765625 402.13671875 C323.07419888 400.42433042 323.03833104 398.71211996 323 397 C319.02655763 398.27759651 315.21649954 399.74935195 311.375 401.375 C277.06407567 414.67441792 235.31154999 411.54652838 202 397 Z M60 411 C58.81051153 421.58867035 58.81051153 421.58867035 61.39453125 431.578125 C63.49142629 433.47429892 65.4786648 434.72327294 68 436 C68.80953125 436.45117188 69.6190625 436.90234375 70.453125 437.3671875 C96.48312394 450.53805523 131.72666226 450.55053471 159.125 441.6875 C166.98661085 438.84739684 174.37882461 435.33614945 180 429 C181.59114794 423.00259621 180.71460334 417.07962533 180 411 C176.68565258 412.08914876 173.38959736 413.21514695 170.109375 414.40234375 C137.89750256 425.89756097 98.9419621 426.52265903 67.1171875 413.26953125 C64.69997812 412.28507881 62.52066586 411.58738265 60 411 Z M201 441 C200.94574774 443.39614126 200.90620973 445.79103853 200.875 448.1875 C200.85824219 448.86103516 200.84148437 449.53457031 200.82421875 450.22851562 C200.77669835 455.09935664 201.18852956 458.80299795 204.33984375 462.625 C222.64211249 478.37658581 251.09107958 479.17752606 274 478 C289.28808765 476.73844228 305.48558162 473.32026207 318 464 C318.74378906 463.47019531 319.48757813 462.94039063 320.25390625 462.39453125 C322.94440824 458.70487192 322.43024892 455.18689648 322.25 450.75 C322.23195313 449.90953125 322.21390625 449.0690625 322.1953125 448.203125 C322.14830798 446.13492605 322.07656724 444.06731559 322 442 C321.05084717 442.33994995 321.05084717 442.33994995 320.08251953 442.68676758 C280.70084676 456.65803745 239.70728625 458.04541046 201 441 Z M60 455 C59.86460719 457.89740622 59.76573171 460.78845621 59.6875 463.6875 C59.64560547 464.50412109 59.60371094 465.32074219 59.56054688 466.16210938 C59.47192406 470.54007653 59.51094101 472.37914376 62.3046875 475.92578125 C63.19414062 476.61027344 64.08359375 477.29476563 65 478 C65.86431641 478.69609375 65.86431641 478.69609375 66.74609375 479.40625 C90.22591361 494.58950534 124.18095711 494.36612369 150.59204102 488.78222656 C161.17460118 486.25950995 171.51495548 482.07845346 179 474 C179.495 473.505 179.495 473.505 180 473 C180.08631874 471.65732587 180.10706473 470.31025678 180.09765625 468.96484375 C180.09443359 468.15595703 180.09121094 467.34707031 180.08789062 466.51367188 C180.07951172 465.66353516 180.07113281 464.81339844 180.0625 463.9375 C180.05798828 463.08349609 180.05347656 462.22949219 180.04882812 461.34960938 C180.03700373 459.23304337 180.01906769 457.11651315 180 455 C178.65421875 455.58007812 178.65421875 455.58007812 177.28125 456.171875 C142.63162079 470.77603117 101.03554074 471.73207388 65.953125 457.7890625 C63.94577981 456.91006973 61.96711378 455.96567404 60 455 Z " fill="#000000" transform="translate(169,0)"/>
<path d="M0 0 C1.73090172 1.56676449 3.44412649 3.15344904 5.1328125 4.765625 C6.96803048 6.64005777 6.96803048 6.64005777 9.09375 7.5859375 C9.155625 6.6784375 9.2175 5.7709375 9.28125 4.8359375 C10.09375 1.5859375 10.09375 1.5859375 12.15625 -0.7890625 C15.88271923 -2.85051357 18.97978773 -3.33006191 23.09375 -2.4140625 C25.89003419 -1.05207925 26.95224718 0.13104402 29.09375 2.5859375 C30.27962634 7.74869995 29.93544347 11.77119775 28.80078125 16.91015625 C28.65348068 17.57884232 28.50618011 18.24752838 28.35441589 18.93647766 C28.04178389 20.33866646 27.72295409 21.73948661 27.39819336 23.13891602 C26.90607804 25.27418362 26.44323688 27.4144272 25.98242188 29.55664062 C25.67361593 30.92487325 25.36312638 32.29272722 25.05078125 33.66015625 C24.77210205 34.89338623 24.49342285 36.12661621 24.20629883 37.3972168 C22.79069629 41.45453187 20.93394331 43.66584084 17.09375 45.5859375 C9.21185431 46.06833568 2.01934532 44.5990434 -5.65625 42.8984375 C-6.86152344 42.65416016 -8.06679687 42.40988281 -9.30859375 42.15820312 C-20.28209933 39.75280096 -20.28209933 39.75280096 -23.90625 34.5859375 C-25.23984091 30.75186363 -24.97353273 28.83404258 -23.90625 24.8984375 C-21.29136943 20.56754155 -19.66766867 20.03136817 -14.90625 18.5859375 C-13.91625 18.5859375 -12.92625 18.5859375 -11.90625 18.5859375 C-26.2880239 8.6293248 -40.90525805 2.16214192 -58.88867188 4.88623047 C-74.92704323 7.90979471 -87.93251874 15.14489928 -97.71875 28.4609375 C-107.31876987 43.04209975 -110.09708467 58.40157317 -107.25390625 75.51171875 C-103.06095418 91.68967545 -93.79822951 103.56862864 -79.90625 112.5859375 C-65.66485102 119.85589949 -49.38755326 122.45819926 -33.84375 117.8984375 C-26.84255803 115.37195908 -20.15166545 112.47824773 -14.34375 107.7734375 C-10.98650101 105.27335847 -8.13634941 104.85963514 -3.9921875 105.0859375 C-0.58930378 105.90161 1.03010637 107.87740524 3.09375 110.5859375 C4.52679064 113.45201879 4.40019155 115.39894533 4.09375 118.5859375 C1.44159427 123.35471752 -1.63615826 126.25932208 -6.21875 129.0859375 C-6.82686523 129.46758057 -7.43498047 129.84922363 -8.06152344 130.24243164 C-26.54898286 141.46291193 -49.18803806 145.25578767 -70.34375 140.0859375 C-81.74929505 136.75981164 -92.86399238 131.35115646 -101.90625 123.5859375 C-102.54433594 123.08964844 -103.18242188 122.59335937 -103.83984375 122.08203125 C-117.69040756 110.87738412 -127.61910193 92.25218465 -129.90625 74.5859375 C-131.73321573 52.1346475 -128.00559655 31.27586208 -113.96875 13.1484375 C-112.63694974 11.60797995 -111.28297359 10.08638195 -109.90625 8.5859375 C-109.24238281 7.83054688 -108.57851562 7.07515625 -107.89453125 6.296875 C-80.3370097 -23.34910936 -31.02523629 -25.7709624 0 0 Z " fill="#000000" transform="translate(214.90625,151.4140625)"/>
</svg>
