<?xml version="1.0" encoding="iso-8859-1"?>
<!-- Uploaded to: SVG Repo, www.svgrepo.com, Generator: SVG Repo Mixer Tools -->
<svg fill="#000000" height="800px" width="800px" version="1.1" id="Layer_1" xmlns="http://www.w3.org/2000/svg" xmlns:xlink="http://www.w3.org/1999/xlink" 
	 viewBox="0 0 511.999 511.999" xml:space="preserve">
<g>
	<g>
		<path d="M465.13,2.495c-4.935-3.043-11.076-3.32-16.25-0.733l-59.315,29.657L330.25,1.761c-4.696-2.347-10.239-2.347-14.935,0
			L256,31.418L196.685,1.761c-4.696-2.347-10.239-2.347-14.935,0l-59.315,29.657L63.12,1.761c-5.173-2.581-11.315-2.31-16.25,0.733
			c-4.912,3.043-7.913,8.412-7.913,14.201v445.216c0,6.327,3.576,12.103,9.228,14.935l66.782,33.391
			c4.696,2.347,10.239,2.347,14.935,0l59.315-29.658l59.315,29.658c4.696,2.347,10.239,2.347,14.935,0l59.315-29.658l59.315,29.658
			c2.347,1.174,4.913,1.761,7.467,1.761s5.12-0.587,7.467-1.761l66.782-33.391c5.652-2.832,9.228-8.608,9.228-14.935V16.696
			C473.043,10.907,470.043,5.538,465.13,2.495z M122.435,100.174h89.043c9.217,0,16.696,7.473,16.696,16.696
			s-7.479,16.696-16.696,16.696h-89.043c-9.217,0-16.696-7.473-16.696-16.696S113.218,100.174,122.435,100.174z M122.435,166.957
			h89.043c9.217,0,16.696,7.473,16.696,16.696s-7.479,16.696-16.696,16.696h-89.043c-9.217,0-16.696-7.473-16.696-16.696
			S113.218,166.957,122.435,166.957z M122.435,233.739h89.043c9.217,0,16.696,7.473,16.696,16.696
			c0,9.223-7.479,16.696-16.696,16.696h-89.043c-9.217,0-16.696-7.473-16.696-16.696
			C105.739,241.212,113.218,233.739,122.435,233.739z M122.435,300.522h89.043c9.217,0,16.696,7.473,16.696,16.696
			s-7.479,16.696-16.696,16.696h-89.043c-9.217,0-16.696-7.473-16.696-16.696S113.218,300.522,122.435,300.522z M122.435,411.826
			H89.044c-9.217,0-16.696-7.473-16.696-16.696s7.479-16.696,16.696-16.696h33.391c9.217,0,16.696,7.473,16.696,16.696
			S131.653,411.826,122.435,411.826z M222.608,411.826h-33.391c-9.217,0-16.696-7.473-16.696-16.696s7.479-16.696,16.696-16.696
			h33.391c9.217,0,16.696,7.473,16.696,16.696S231.827,411.826,222.608,411.826z M322.782,411.826h-33.391
			c-9.217,0-16.696-7.473-16.696-16.696s7.479-16.696,16.696-16.696h33.391c9.217,0,16.696,7.473,16.696,16.696
			S332,411.826,322.782,411.826z M361.739,317.217c0,9.223-7.479,16.696-16.696,16.696s-16.696-7.473-16.696-16.696v-7.939
			c-25.652-7.293-44.522-30.882-44.522-58.843c0-9.223,7.479-16.696,16.696-16.696s16.696,7.473,16.696,16.696
			c0,15.342,12.478,27.826,27.826,27.826s27.826-12.484,27.826-27.826c0-10.923-18.109-20.5-35.631-29.755
			c-23.792-12.582-53.413-28.24-53.413-59.288c0-27.961,18.868-51.551,44.522-58.843v-7.939c0-9.223,7.479-16.696,16.696-16.696
			s16.696,7.473,16.696,16.696v7.939c25.652,7.293,44.522,30.882,44.522,58.843c0,9.223-7.479,16.696-16.696,16.696
			s-16.696-7.473-16.696-16.696c0-15.342-12.478-27.826-27.826-27.826s-27.826,12.484-27.826,27.826
			c0,10.929,18.109,20.506,35.631,29.766c23.794,12.576,53.413,28.233,53.413,59.277c0,27.961-18.869,51.55-44.522,58.843V317.217z
			 M422.956,411.826h-33.391c-9.217,0-16.696-7.473-16.696-16.696s7.479-16.696,16.696-16.696h33.391
			c9.217,0,16.696,7.473,16.696,16.696S432.174,411.826,422.956,411.826z"/>
	</g>
</g>
</svg>